HIERARCHY
ROOT pelvis
{
  OFFSET 0 100 0
  CHANNELS 6 Xposition Yposition Zposition Zrotation Xrotation Yrotation
  JOINT pelvis_right_femur
  {
    OFFSET -10.78128 -3.44521 -0.5502486
    CHANNELS 3 Zrotation Xrotation Yrotation
    JOINT right_femur_tibia
    {
      OFFSET -0.8047443 -44.0398 -0.1307829
      CHANNELS 3 Zrotation Xrotation Yrotation
      JOINT right_tibia_foot
      {
        OFFSET 3.006224 -47.83518 -5
        CHANNELS 3 Zrotation Xrotation Yrotation
        End Site
        {
          OFFSET 0 -5 15
        }
      }
    }
  }
  JOINT pelvis_left_femur
  {
    OFFSET 10.78128 -3.44521 -0.5502486
    CHANNELS 3 Zrotation Xrotation Yrotation
    JOINT left_femur_tibia
    {
      OFFSET 0.8047443 -44.0398 -0.1307829
      CHANNELS 3 Zrotation Xrotation Yrotation
      JOINT left_tibia_foot
      {
        OFFSET -4.370144 -48.10324 -4.275266
        CHANNELS 3 Zrotation Xrotation Yrotation
        End Site
        {
          OFFSET 0 -5 15
        }
      }
    }
  }
  JOINT pelvis_spine1
  {
    OFFSET 0 6.468898 -3.129235
    CHANNELS 3 Zrotation Xrotation Yrotation
    JOINT spine1
    {
      OFFSET 0 23.15396 4.99043
      CHANNELS 3 Zrotation Xrotation Yrotation
      JOINT spine2
      {
        OFFSET 0 20.79997 -5.064912
        CHANNELS 3 Zrotation Xrotation Yrotation
        JOINT neck
        {
          OFFSET 0 14.38658 9.616178
          CHANNELS 3 Zrotation Xrotation Yrotation
          End Site
          {
            OFFSET 0 20 0
          }
        }
      }
      JOINT right_manubrium
      {
        OFFSET -5.722621 16.35077 3.967754
        CHANNELS 3 Zrotation Xrotation Yrotation
        JOINT right_clavicle
        {
          OFFSET -13.16364 1.694482 -4.693211
          CHANNELS 3 Zrotation Xrotation Yrotation
          JOINT right_humerus
          {
            OFFSET -28.5034 -0.3100689 -2.792744
            CHANNELS 3 Zrotation Xrotation Yrotation
            JOINT right_radius
            {
              OFFSET -25.15693 0.02248979 -1.271978
              CHANNELS 3 Zrotation Xrotation Yrotation
              End Site
              {
                OFFSET -15 0 0
              }
            }
          }
        }
      }
      JOINT left_manubrium
      {
        OFFSET 5.722621 16.35077 3.967754
        CHANNELS 3 Zrotation Xrotation Yrotation
        JOINT left_clavicle
        {
          OFFSET 13.16364 1.694482 -4.693211
          CHANNELS 3 Zrotation Xrotation Yrotation
          JOINT left_humerus
          {
            OFFSET 29.39168 -1.063119 -2.237045
            CHANNELS 3 Zrotation Xrotation Yrotation
            JOINT left_radius
            {
              OFFSET 24.59957 -0.9528479 0.9047498
              CHANNELS 3 Zrotation Xrotation Yrotation
              End Site
              {
                OFFSET 15 -0 -0
              }
            }
          }
        }
      }
    }
  }
}
MOTION
Frames: 9
Frame Time: 0.0416666666667
0 103.5113 0 2.182132 -1.163992 0.2680586 1.23228 -10.11826 8.686515 -0 34.07534 -0 -5.254353 -17.88915 -2.24802 -8.035855 10.07555 -23.46627 -0 5.158787 -0 7.673285 -16.16809 26.55948 -4.34885 -5.054193 4.969339 2.035965 9.203349 -7.73306 0.8470329 22.80515 7.165361 3.252447 -23.11057 8.810735 6.366295 -19.74724 11.57853 86.30191 35.9439 -19.7945 -0 0 16.24341 -7.582201 8.243145 4.614305 5.529271 -19.49461 -1.677547 -94.78238 29.73685 22.90206 0 0 -16.0257 3.50733 17.90975 9.538092
0.344994 103.5365 1.397592 2.037599 -0.9720572 0.4258307 1.460979 -11.14439 8.48294 -0 32.80266 -0 -5.269769 -17.34076 -2.027285 -7.904281 10.17406 -23.26316 -0 5.259867 -0 7.520923 -16.46981 26.34776 -4.308316 -4.872252 4.951178 2.152384 9.150204 -7.727111 0.8955965 22.68635 7.164036 3.283086 -23.25516 8.843846 6.332675 -19.66372 11.58374 86.27456 35.91605 -19.85165 -0 0 16.1223 -7.632458 8.276638 4.63043 5.663432 -19.56883 -1.641972 -94.67661 29.67733 22.69052 0 0 -16.3792 3.577329 17.83376 9.46428
0.7085754 103.4753 2.927802 1.849115 -0.67626 0.5030804 1.738867 -12.55385 8.154224 -0 30.5254 -0 -5.280593 -16.49872 -1.610625 -7.740549 10.30035 -22.94147 -0 5.445376 -0 7.284443 -16.90527 26.0142 -4.265631 -4.632375 4.948402 2.320941 9.070087 -7.705775 0.96892 22.51064 7.159122 3.333217 -23.4476 8.883809 6.273378 -19.53145 11.58966 86.24711 35.87424 -19.9456 -0 0 15.93465 -7.706241 8.32874 4.652573 5.87251 -19.68228 -1.58684 -94.51174 29.59032 22.35198 0 0 -16.91465 3.680857 17.72506 9.346499
1.096322 103.2986 4.64214 1.649373 -0.2726844 0.5022944 2.010641 -14.19903 7.694897 -0 27.14334 -0 -5.28523 -15.37275 -0.9875223 -7.577514 10.45368 -22.48952 -0 5.764398 -0 6.948724 -17.45197 25.52967 -4.227072 -4.373354 4.964363 2.518416 8.967825 -7.668832 1.058077 22.29737 7.152732 3.400242 -23.65577 8.922314 6.18266 -19.34668 11.58765 86.24423 35.82019 -20.08383 -0 0 15.67506 -7.800399 8.402908 4.681107 6.14342 -19.83494 -1.514007 -94.2821 29.47975 21.89013 0 0 -17.59204 3.806369 17.58544 9.195275
1.511442 102.9864 6.594946 1.472985 0.2394003 0.4535845 2.221075 -15.90342 7.102173 -0 22.64687 -0 -5.288385 -13.98911 -0.1715111 -7.448282 10.63695 -21.89569 -0 6.284526 -0 6.490372 -18.07522 24.85549 -4.193638 -4.139566 4.995494 2.714739 8.849938 -7.62093 1.14999 22.07229 7.148664 3.47889 -23.84258 8.9501 6.056213 -19.10596 11.56681 86.29637 35.75641 -20.27463 -0 0 15.33735 -7.911265 8.50376 4.717357 6.453155 -20.02463 -1.427718 -93.98305 29.34981 21.31895 0 0 -18.34997 3.937746 17.41563 9.028323
1.953587 102.5346 8.840624 1.333099 0.8453324 0.4039438 2.347118 -17.492 6.392506 -0 17.2648 -0 -5.311019 -12.42461 0.7853889 -7.359059 10.84263 -21.16068 -0 7.087563 -0 5.878843 -18.70386 23.9619 -4.151506 -3.96183 5.029027 2.887895 8.72206 -7.574387 1.230688 21.85493 7.15079 3.561646 -23.98373 8.959348 5.898838 -18.81058 11.52226 86.42348 35.68577 -20.52119 -0 0 14.92125 -8.036697 8.635247 4.763692 6.766492 -20.23904 -1.338193 -93.6241 29.20173 20.67469 0 0 -19.11026 4.058816 17.21577 8.86745
2.416002 101.971 11.43439 1.212533 1.508614 0.4066047 2.412053 -18.74248 5.616494 -0 11.58432 -0 -5.394222 -10.84358 1.775988 -7.275326 11.04434 -20.29624 -0 8.320043 -0 5.059884 -19.19028 22.81667 -4.059804 -3.859769 5.036336 3.023636 8.588398 -7.555722 1.28132 21.65854 7.164205 3.636687 -24.06738 8.941408 5.728938 -18.46534 11.45639 86.63771 35.61279 -20.8238 -0 0 14.42999 -8.177272 8.802854 4.824846 7.021394 -20.44804 -1.267889 -93.23503 29.03306 20.03053 0 0 -19.75271 4.149578 16.98349 8.745352
2.885195 101.3621 14.4329 1.077966 2.178552 0.5125657 2.468981 -19.40963 4.846256 -0 6.35474 -0 -5.577678 -9.453262 2.672611 -7.143115 11.19778 -19.32049 -0 10.17314 -0 3.976424 -19.33929 21.39423 -3.865403 -3.845052 4.985268 3.112205 8.453459 -7.594802 1.281399 21.49302 7.193637 3.690338 -24.08795 8.886696 5.571442 -18.0771 11.3769 86.94478 35.54292 -21.17871 -0 0 13.86941 -8.33624 9.012824 4.907288 7.144125 -20.61293 -1.244946 -92.85525 28.84013 19.47653 0 0 -20.1411 4.189178 16.71502 8.698445
3.347625 100.7955 17.88378 0.9077551 2.796074 0.7513698 2.560267 -19.32861 4.143183 -0 2.065796 -0 -5.870238 -8.401425 3.399703 -6.934563 11.22296 -18.25987 -0 12.81237 -0 2.626674 -18.98258 19.7176 -3.540917 -3.911649 4.876701 3.149627 8.327751 -7.692244 1.221308 21.36579 7.236968 3.713828 -24.04219 8.78692 5.443924 -17.65747 11.29963 87.33037 35.48051 -21.56442 -0 0 13.25594 -8.521383 9.267356 5.017835 7.094226 -20.70705 -1.283532 -92.51701 28.61965 19.07389 0 0 -20.20533 4.168008 16.40979 8.743428
